<svg width="40" height="41" viewBox="0 0 40 41" fill="none" xmlns="http://www.w3.org/2000/svg">
<path d="M30.3717 7.12286L30.6771 6.73876L30.2988 6.4262C27.3835 4.01754 23.6807 2.57871 19.6298 2.57871C18.2106 2.57871 16.8347 2.77766 15.5318 3.10358L14.8051 3.28539L15.2518 3.88678C16.6424 5.75884 18.6401 8.5862 21.0325 13.0143L21.2391 13.3967L21.6466 13.2454C26.1739 11.5632 28.8868 8.99014 30.3717 7.12286ZM13.0714 4.36397L12.8263 4.04093L12.4596 4.21401C7.96346 6.33619 4.55717 10.3896 3.21256 15.3395L3.04662 15.9504L3.67934 15.9703C6.15526 16.0483 12.0735 15.9315 18.6312 14.1736L19.2493 14.0079L18.939 13.4482C16.3955 8.86161 14.2566 5.92623 13.0714 4.36397ZM32.5252 8.62565L32.1374 8.1646L31.7557 8.63074C30.0997 10.6533 27.2244 13.2802 22.6721 15.0627L22.1661 15.2608L22.4055 15.7486C23.3871 17.748 24.3392 19.8787 25.2068 22.1796L25.3497 22.5586L25.7502 22.4974C29.0434 21.9943 32.0875 21.9942 34.3869 22.1745C34.946 22.2209 35.3068 22.273 35.7268 22.3337C35.8152 22.3465 35.9062 22.3596 36.0023 22.3732L36.5144 22.4455L36.5694 21.9312C36.6368 21.3003 36.6756 20.6666 36.6756 20.0116C36.6756 15.6555 35.0983 11.6846 32.5252 8.62565ZM20.3781 16.2577L20.193 15.8863L19.7939 15.9998C12.0807 18.1925 5.28603 18.1255 3.17 18.04L2.68813 18.0206L2.65128 18.5014L2.6487 18.535C2.61214 19.0119 2.57461 19.5012 2.57461 20.0212C2.57461 25.2581 4.83888 29.9329 8.40981 33.1318L8.78273 33.4659L9.1163 33.0925C10.0114 32.0906 11.212 30.8145 12.6717 29.4824L12.6736 29.4806C15.4199 26.9473 18.9533 24.2669 22.8023 23.0973L23.319 22.9403L23.1228 22.4372C22.2612 20.2281 21.3336 18.1747 20.3781 16.2577ZM29.8676 24.1589L29.8676 24.1589L29.8622 24.1591C28.8511 24.208 27.7747 24.3055 26.6802 24.4516L26.0856 24.531L26.2708 25.1016C27.1946 27.9472 27.9587 30.9617 28.4523 34.0975L28.5765 34.8868L29.2321 34.43C32.4181 32.21 34.8281 28.911 35.9508 25.0383L36.1159 24.4688L35.5267 24.4023C34.0666 24.2373 32.2153 24.071 29.8676 24.1589ZM24.2117 25.3449L24.0581 24.8913L23.5983 25.0251C20.2169 26.0096 16.68 28.5624 13.9996 31.0243C12.7044 32.2037 11.6584 33.3232 10.8189 34.2402L10.4066 34.6906L10.9295 35.0059C13.475 36.5413 16.431 37.4445 19.6204 37.4445C22.0141 37.4445 24.2719 36.9385 26.3338 36.0469L26.6817 35.8965L26.6308 35.5209C26.1465 31.9449 25.2923 28.5366 24.2117 25.3449ZM0.575684 20.0116C0.575684 9.25117 9.14322 0.5 19.6298 0.5C30.1164 0.5 38.6839 9.25117 38.6839 20.0116C38.6839 30.7721 30.1164 39.5233 19.6298 39.5233C9.14322 39.5233 0.575684 30.7721 0.575684 20.0116Z" fill="#070707" stroke="#070707"/>
</svg>
