<svg width="41" height="41" viewBox="0 0 41 41" fill="none" xmlns="http://www.w3.org/2000/svg">
<g clip-path="url(#clip0)">
<path d="M35.0279 0.216797H6.66812C3.42826 0.216797 0.79248 2.84693 0.79248 6.07987V34.3789C0.79248 37.6119 3.42826 40.242 6.66812 40.242H35.0279C38.2677 40.242 40.9035 37.6119 40.9035 34.3789V6.07987C40.9035 2.84693 38.2677 0.216797 35.0279 0.216797ZM38.5533 34.3789C38.5533 36.3186 36.9717 37.8968 35.0279 37.8968H6.66812C4.72426 37.8968 3.14274 36.3186 3.14274 34.3789V6.07987C3.14274 4.14017 4.72426 2.56202 6.66812 2.56202H35.0279C36.9717 2.56202 38.5533 4.14017 38.5533 6.07987V34.3789Z" fill="#070707" stroke="#070707" stroke-width="0.5"/>
<path d="M19.6727 16.7119C19.6727 14.1255 17.5642 12.0215 14.9722 12.0215H7.92139V28.4381H14.9722C17.5642 28.4381 19.6727 26.3341 19.6727 23.7476C19.6727 22.3478 19.0542 21.09 18.0761 20.2298C19.0542 19.3696 19.6727 18.1117 19.6727 16.7119ZM17.3224 23.7476C17.3224 25.0409 16.2682 26.0928 14.9722 26.0928H10.2716V21.4024H14.9722C16.2682 21.4024 17.3224 22.4544 17.3224 23.7476ZM10.2716 19.0572V14.3667H14.9722C16.2682 14.3667 17.3224 15.4187 17.3224 16.7119C17.3224 18.0052 16.2682 19.0572 14.9722 19.0572H10.2716Z" fill="#070707" stroke="#070707" stroke-width="0.5"/>
<path d="M27.8986 16.7119C24.6587 16.7119 22.0229 19.3421 22.0229 22.575C22.0229 25.8079 24.6587 28.4381 27.8986 28.4381C29.9896 28.4381 31.9396 27.3152 32.9874 25.5074L30.953 24.333C30.3238 25.4186 29.1533 26.0928 27.8986 26.0928C26.3663 26.0928 25.0596 25.1126 24.5746 23.7476H33.7742V22.575C33.7742 19.3421 31.1385 16.7119 27.8986 16.7119ZM24.5746 21.4024C25.0596 20.0374 26.3663 19.0571 27.8986 19.0571C29.4308 19.0571 30.7376 20.0374 31.2226 21.4024H24.5746Z" fill="#070707" stroke="#070707" stroke-width="0.5"/>
<path d="M23.1982 12.0215H32.5993V14.3667H23.1982V12.0215Z" fill="#070707" stroke="#070707" stroke-width="0.5"/>
</g>
<defs>
<clipPath id="clip0">
<rect width="40.111" height="40.0252" fill="white" transform="translate(0.79248 0.216797)"/>
</clipPath>
</defs>
</svg>
