<svg width="40" height="41" viewBox="0 0 40 41" fill="none" xmlns="http://www.w3.org/2000/svg">
<path d="M11.8745 0.509616H12.3745V0.5H28.2793C34.2436 0.5 39.1263 5.48768 39.1263 11.6193V28.4039C39.1263 34.5358 34.2433 39.5233 28.2887 39.5233H11.8745C5.90889 39.5233 1.01807 34.5438 1.01807 28.4231V11.629C1.01807 5.49784 5.90969 0.509616 11.8745 0.509616ZM3.02639 11.6376V11.6386V28.4328C3.02639 33.4216 6.95366 37.4549 11.8745 37.4549H28.2887C33.1922 37.4549 37.118 33.4201 37.118 28.4135V11.629C37.118 6.62204 33.1918 2.58759 28.2793 2.58759H11.8745C6.96145 2.58759 3.03632 6.62236 3.02639 11.6376ZM31.1107 7.70455C31.1107 7.11379 31.5651 6.66557 32.1149 6.66557C32.6647 6.66557 33.1191 7.11379 33.1191 7.70455C33.1191 8.29532 32.6647 8.74354 32.1149 8.74354C31.5651 8.74354 31.1107 8.29532 31.1107 7.70455ZM10.0525 20.0164C10.0525 14.3566 14.5774 9.74354 20.0816 9.74354C25.5858 9.74354 30.1107 14.3566 30.1107 20.0164C30.1107 25.6762 25.5858 30.2893 20.0816 30.2893C14.5774 30.2893 10.0525 25.6762 10.0525 20.0164ZM28.1024 20.0164C28.1024 15.4805 24.5425 11.8215 20.0816 11.8215C15.6207 11.8215 12.0608 15.4805 12.0608 20.0164C12.0608 24.5524 15.6207 28.2114 20.0816 28.2114C24.5425 28.2114 28.1024 24.5524 28.1024 20.0164Z" fill="#070707" stroke="#070707"/>
</svg>
